<?xml version="1.0" encoding="utf-8"?>
<svg width="96" height="96" overflow="hidden" xmlns="http://www.w3.org/2000/svg">
  <defs>
    <clipPath id="clip0">
      <path d="M0 0 96 0 96 96 0 96Z" fill-rule="evenodd" clip-rule="evenodd"/>
    </clipPath>
  </defs>
  <g clip-path="url(#clip0)">
    <path d="M0 0 96 0 96 96 0 96Z" fill-rule="evenodd" style="fill: none;"/>
    <path d="M6 92 92.2322 92.0001" stroke="#000000" stroke-width="4" stroke-linecap="round" stroke-linejoin="round" stroke-miterlimit="10" fill="none" fill-rule="evenodd"/>
    <path d="M 73.672 39.247 C 70.616 36.251 65.663 36.251 62.607 39.247 L 31.589 69.654 C 31.376 69.862 31.223 70.121 31.143 70.404 L 27.063 84.84 C 26.896 85.432 27.066 86.066 27.509 86.501 C 27.952 86.935 28.599 87.102 29.203 86.938 L 43.929 82.939 C 44.218 82.86 44.482 82.71 44.694 82.502 L 75.712 52.093 C 78.763 49.096 78.763 44.244 75.712 41.247 Z M 35.377 70.762 L 60.763 45.875 L 68.95 53.901 L 43.564 78.788 Z M 33.742 73.979 L 40.283 80.392 L 31.235 82.849 Z M 73.254 49.683 L 71.41 51.491 L 63.222 43.464 L 65.066 41.657 C 66.764 39.993 69.515 39.993 71.213 41.657 L 73.254 43.657 C 74.948 45.322 74.948 48.018 73.254 49.683 Z" fill-rule="evenodd"/>
  </g>
</svg>