<?xml version="1.0" encoding="utf-8"?>
<svg version="1.1" viewBox="0 0 140 140" width="140" height="140" xmlns="http://www.w3.org/2000/svg">
  <g transform="matrix(5.833333333333333,0,0,5.833333333333333,0,0)">
    <path d="M6.75 17.249L17.25 6.749" fill="none" stroke="#000000" stroke-linecap="round" stroke-linejoin="round" style="stroke-width: 1.2px;"/>
    <path d="M7.735,12.021a4.472,4.472,0,0,0-3.417,1.3l-2.25,2.25a4.5,4.5,0,0,0,6.364,6.364l2.25-2.25a4.472,4.472,0,0,0,1.3-3.417" fill="none" stroke="#000000" stroke-linecap="round" stroke-linejoin="round" style="stroke-width: 1.2px;"/>
    <path d="M16.265,11.976a4.473,4.473,0,0,0,3.417-1.3l2.25-2.25a4.5,4.5,0,0,0-6.364-6.364l-2.25,2.25a4.475,4.475,0,0,0-1.295,3.417" fill="none" stroke="#000000" stroke-linecap="round" stroke-linejoin="round" style="stroke-width: 1.2px;"/>
  </g>
</svg>